<svg width="375" height="94" viewBox="0 0 375 94" fill="none" xmlns="http://www.w3.org/2000/svg">
<g clip-path="url(#clip0_31_43529)">
<rect width="375" height="94" fill="url(#paint0_linear_31_43529)"/>
<path opacity="0.6" d="M141.198 75.0535C125.716 40.6403 85.2686 25.2931 50.8554 40.7746C16.4422 56.2561 1.09507 96.7037 16.5766 131.117C32.058 165.53 72.5057 180.877 106.919 165.396C141.332 149.914 156.679 109.467 141.198 75.0535Z" fill="url(#paint1_linear_31_43529)"/>
<path opacity="0.3" d="M214.289 144.869L214.502 144.773C272.091 118.865 333.558 101.211 396.332 91.9878L449.269 -36.9471C364.5 -32.7066 281.269 -12.6645 203.862 22.1477L166.831 38.8067L214.289 144.869Z" fill="url(#paint2_linear_31_43529)"/>
</g>
<defs>
<linearGradient id="paint0_linear_31_43529" x1="185.325" y1="-6.17886" x2="185.387" y2="90.8991" gradientUnits="userSpaceOnUse">
<stop stop-color="#5C30A1"/>
<stop offset="1" stop-color="#0DC9C2"/>
</linearGradient>
<linearGradient id="paint1_linear_31_43529" x1="14.3916" y1="91.7129" x2="116.987" y2="41.8475" gradientUnits="userSpaceOnUse">
<stop stop-color="#0DC9C2"/>
<stop offset="1" stop-color="#0DC9C2" stop-opacity="0"/>
</linearGradient>
<linearGradient id="paint2_linear_31_43529" x1="195.881" y1="103.951" x2="459.336" y2="-14.5694" gradientUnits="userSpaceOnUse">
<stop stop-color="white"/>
<stop offset="1" stop-color="white" stop-opacity="0"/>
</linearGradient>
<clipPath id="clip0_31_43529">
<rect width="375" height="94" fill="white"/>
</clipPath>
</defs>
</svg>
